<svg width="24" height="25" viewBox="0 0 24 25" fill="none" xmlns="http://www.w3.org/2000/svg">
<path d="M9.30999 7.20978C9.21729 7.30229 9.14374 7.41218 9.09356 7.53315C9.04338 7.65413 9.01755 7.78381 9.01755 7.91478C9.01755 8.04575 9.04338 8.17543 9.09356 8.2964C9.14374 8.41738 9.21729 8.52726 9.30999 8.61978L13.19 12.4998L9.30999 16.3798C9.12301 16.5668 9.01797 16.8204 9.01797 17.0848C9.01797 17.3492 9.12301 17.6028 9.30999 17.7898C9.49697 17.9768 9.75057 18.0818 10.015 18.0818C10.2794 18.0818 10.533 17.9768 10.72 17.7898L15.31 13.1998C15.4027 13.1073 15.4762 12.9974 15.5264 12.8764C15.5766 12.7554 15.6024 12.6257 15.6024 12.4948C15.6024 12.3638 15.5766 12.2341 15.5264 12.1132C15.4762 11.9922 15.4027 11.8823 15.31 11.7898L10.72 7.19978C10.34 6.81978 9.69999 6.81978 9.30999 7.20978Z" fill="white"/>
</svg>
