<svg width="38" height="38" viewBox="0 0 38 38" fill="none" xmlns="http://www.w3.org/2000/svg">
<path d="M30.5283 0.346707C30.3056 0.124085 30.0036 -0.000976562 29.6887 -0.000976562C29.3738 -0.000976562 29.0718 0.124085 28.8492 0.346707L24.9375 4.25833L33.7417 13.0625L37.6533 9.15321C37.7639 9.0429 37.8516 8.91186 37.9115 8.76759C37.9713 8.62332 38.0022 8.46865 38.0022 8.31246C38.0022 8.15626 37.9713 8.0016 37.9115 7.85733C37.8516 7.71306 37.7639 7.58202 37.6533 7.47171L30.5283 0.346707ZM32.0625 14.7416L23.2584 5.93746L7.8209 21.375H8.31253C8.62747 21.375 8.92952 21.5001 9.15222 21.7228C9.37492 21.9455 9.50003 22.2475 9.50003 22.5625V23.75H10.6875C11.0025 23.75 11.3045 23.8751 11.5272 24.0978C11.7499 24.3205 11.875 24.6225 11.875 24.9375V26.125H13.0625C13.3775 26.125 13.6795 26.2501 13.9022 26.4728C14.1249 26.6955 14.25 26.9975 14.25 27.3125V28.5H15.4375C15.7525 28.5 16.0545 28.6251 16.2772 28.8478C16.4999 29.0705 16.625 29.3725 16.625 29.6875V30.1791L32.0625 14.7416ZM14.326 32.4781C14.2761 32.3452 14.2503 32.2044 14.25 32.0625V30.875H13.0625C12.7476 30.875 12.4455 30.7498 12.2228 30.5271C12.0001 30.3044 11.875 30.0024 11.875 29.6875V28.5H10.6875C10.3726 28.5 10.0705 28.3748 9.84784 28.1521C9.62514 27.9294 9.50003 27.6274 9.50003 27.3125V26.125H8.31253C7.99758 26.125 7.69554 25.9998 7.47284 25.7771C7.25014 25.5544 7.12503 25.2524 7.12503 24.9375V23.75H5.93753C5.79556 23.7497 5.65479 23.7239 5.5219 23.674L5.09678 24.0967C4.98361 24.2107 4.89473 24.3464 4.83553 24.4957L0.0855277 36.3707C-0.000852629 36.5865 -0.0219984 36.8229 0.0247118 37.0506C0.071422 37.2783 0.183934 37.4873 0.348299 37.6517C0.512665 37.8161 0.721655 37.9286 0.949362 37.9753C1.17707 38.022 1.41348 38.0008 1.62928 37.9145L13.5043 33.1645C13.6536 33.1053 13.7893 33.0164 13.9033 32.9032L14.326 32.4781Z" fill="#F2F6FF" fill-opacity="0.1"/>
</svg>
