<svg width="76" height="76" viewBox="0 0 76 76" fill="none" xmlns="http://www.w3.org/2000/svg">
<path d="M63.365 18.6629C63.1646 18.5036 62.9249 18.4012 62.6712 18.3665C62.4176 18.3318 62.1592 18.3661 61.9234 18.4658L38.9809 28.4004C37.9834 28.8351 36.7341 29.0417 35.4516 29.0417C33.6633 29.0488 31.8131 28.6332 30.5235 28.0679C30.1303 27.9028 29.7561 27.6958 29.4073 27.4504C29.5038 27.4029 29.6186 27.3523 29.7516 27.2984L50.6184 18.2639L53.7296 19.5939V15.7061C53.7335 15.4289 53.6751 15.1545 53.5587 14.9029C53.4424 14.6514 53.2711 14.4291 53.0575 14.2526C52.8588 14.0918 52.6198 13.9884 52.3666 13.9536C52.1133 13.9189 51.8553 13.9541 51.6206 14.0554L28.6781 23.9901C27.9704 24.2751 27.3624 24.6266 26.8494 25.1372C26.256 25.7237 25.9187 26.5211 25.9113 27.3554C25.9113 27.3792 25.9184 27.4196 25.9184 27.4196V62.4033L25.9136 62.4508L25.9208 62.4746V62.5126H25.9255C25.973 63.7357 26.5905 64.5147 27.1795 65.0657C29.032 66.6997 32.1433 67.6141 35.454 67.6616C37.0215 67.6616 38.6128 67.4241 40.0853 66.7923L63.0349 56.8553C63.6405 56.5941 64.0371 55.9457 64.0371 55.2118V20.1164C64.041 19.8393 63.9826 19.5649 63.8662 19.3133C63.7499 19.0617 63.5786 18.8395 63.365 18.6629ZM48.8134 12.0129C48.773 11.4904 48.5569 10.9917 48.1721 10.6924C47.9717 10.5331 47.7321 10.4307 47.4784 10.396C47.2247 10.3613 46.9664 10.3956 46.7305 10.4953L23.788 20.4252C22.7905 20.8574 21.5389 21.0664 20.2588 21.0664C18.4704 21.0712 16.6203 20.6556 15.3306 20.0879C14.9377 19.9243 14.5634 19.7189 14.2144 19.4752C14.311 19.4277 14.4258 19.377 14.5588 19.3232L35.4279 10.2887L38.5391 11.6187V7.73556C38.5427 7.45825 38.4839 7.18368 38.3672 6.93211C38.2504 6.68054 38.0787 6.45839 37.8646 6.28206C37.6645 6.12315 37.4252 6.02101 37.172 5.98633C36.9188 5.95164 36.6609 5.9857 36.4254 6.08493L13.4829 16.0219C12.7751 16.3069 12.1695 16.6561 11.6541 17.1691C11.0616 17.756 10.7252 18.5534 10.7184 19.3873C10.7184 19.4158 10.7255 19.4538 10.7255 19.4538V54.5492H10.7303C10.7778 55.7723 11.3953 56.5513 11.9843 57.1023C13.8368 58.7363 16.948 59.6483 20.2611 59.6958C21.1608 59.69 22.0576 59.5929 22.9378 59.4061V27.4172C22.914 25.7547 23.579 24.1587 24.7475 23.0092C25.5581 22.2252 26.5196 21.6143 27.5738 21.2137L48.8134 12.0129Z" fill="#F2F6FF" fill-opacity="0.1"/>
</svg>
