<svg width="101" height="101" viewBox="0 0 101 101" fill="none" xmlns="http://www.w3.org/2000/svg">
<path d="M70.4896 56.8123C65.8604 50.4998 59.5479 46.2915 50.5 46.2915C41.4521 46.2915 35.1396 50.4998 30.5104 56.8123H70.4896Z" fill="#2196F3" fill-opacity="0.1"/>
<path d="M71.7521 90.4793H29.2479C26.9333 90.4793 25.25 88.796 25.0396 86.4814L23.3563 59.1272C23.3563 56.8127 25.25 54.7085 27.5646 54.7085H73.4354C75.9604 54.7085 77.8542 56.8127 77.6438 59.1272L75.9604 86.4814C75.75 88.796 74.0667 90.4793 71.7521 90.4793Z" fill="#F2F6FF" fill-opacity="0.1"/>
<path d="M71.5417 63.1248C72.7038 63.1248 73.6458 62.1828 73.6458 61.0207C73.6458 59.8586 72.7038 58.9165 71.5417 58.9165C70.3796 58.9165 69.4375 59.8586 69.4375 61.0207C69.4375 62.1828 70.3796 63.1248 71.5417 63.1248Z" fill="#F2F6FF" fill-opacity="0.1"/>
<path d="M50.5 42.0832C59.7968 42.0832 67.3333 34.5466 67.3333 25.2498C67.3333 15.953 59.7968 8.4165 50.5 8.4165C41.2032 8.4165 33.6667 15.953 33.6667 25.2498C33.6667 34.5466 41.2032 42.0832 50.5 42.0832Z" fill="#F2F6FF" fill-opacity="0.1"/>
<path d="M33.8771 89.2163L31.5625 91.5309C30.3 92.7934 28.1958 92.7934 26.9333 91.5309L19.9896 84.5871C18.7271 83.3246 18.7271 81.2204 19.9896 79.9579L22.3042 77.6434C25.0396 74.9079 28.8271 74.9079 31.5625 77.6434L33.8771 79.9579C36.4021 82.6934 36.4021 86.6913 33.8771 89.2163ZM67.1229 79.9579L69.4375 77.6434C72.1729 74.9079 75.9604 74.9079 78.6958 77.6434L81.0104 79.9579C82.2729 81.2204 82.2729 83.3246 81.0104 84.5871L74.0667 91.5309C72.8041 92.7934 70.7 92.7934 69.4375 91.5309L67.1229 89.2163C64.5979 86.6913 64.5979 82.6934 67.1229 79.9579Z" fill="#F2F6FF" fill-opacity="0.1"/>
</svg>
