<svg width="76" height="76" viewBox="0 0 76 76" fill="none" xmlns="http://www.w3.org/2000/svg">
<path d="M53.0417 42.7502C49.5583 38.0002 44.8083 34.8335 38 34.8335C31.1917 34.8335 26.4417 38.0002 22.9583 42.7502H53.0417Z" fill="#2196F3" fill-opacity="0.1"/>
<path d="M53.9917 68.0832H22.0083C20.2667 68.0832 19 66.8165 18.8417 65.0748L17.575 44.4915C17.575 42.7498 19 41.1665 20.7417 41.1665H55.2583C57.1583 41.1665 58.5833 42.7498 58.425 44.4915L57.1583 65.0748C57 66.8165 55.7333 68.0832 53.9917 68.0832Z" fill="#5189FC" fill-opacity="0.1"/>
<path d="M53.8333 47.5002C54.7078 47.5002 55.4167 46.7913 55.4167 45.9168C55.4167 45.0424 54.7078 44.3335 53.8333 44.3335C52.9589 44.3335 52.25 45.0424 52.25 45.9168C52.25 46.7913 52.9589 47.5002 53.8333 47.5002Z" fill="#5189FC" fill-opacity="0.1"/>
<path d="M38 31.6668C44.9956 31.6668 50.6667 25.9958 50.6667 19.0002C50.6667 12.0046 44.9956 6.3335 38 6.3335C31.0044 6.3335 25.3333 12.0046 25.3333 19.0002C25.3333 25.9958 31.0044 31.6668 38 31.6668Z" fill="#5189FC" fill-opacity="0.1"/>
<path d="M25.4917 67.1334L23.75 68.8751C22.8 69.8251 21.2167 69.8251 20.2667 68.8751L15.0417 63.6501C14.0917 62.7001 14.0917 61.1168 15.0417 60.1668L16.7833 58.4251C18.8417 56.3668 21.6917 56.3668 23.75 58.4251L25.4917 60.1668C27.3917 62.2251 27.3917 65.2334 25.4917 67.1334ZM50.5083 60.1668L52.25 58.4251C54.3083 56.3668 57.1583 56.3668 59.2167 58.4251L60.9583 60.1668C61.9083 61.1168 61.9083 62.7001 60.9583 63.6501L55.7333 68.8751C54.7833 69.8251 53.2 69.8251 52.25 68.8751L50.5083 67.1334C48.6083 65.2334 48.6083 62.2251 50.5083 60.1668Z" fill="#5189FC" fill-opacity="0.1"/>
</svg>
