<svg width="62" height="60" viewBox="0 0 62 60" fill="none" xmlns="http://www.w3.org/2000/svg">
<path d="M0.777581 44.5056C0.441748 43.6272 -0.570919 40.5996 0.433998 38.2229L25.8204 52.8807C25.95 52.9555 26.097 52.9949 26.2467 52.9949C26.3963 52.9949 26.5433 52.9555 26.6729 52.8807L62 32.4853V38.5665L26.2467 59.2073L0.777581 44.5056ZM0.493414 22.1546C-0.250586 24.4201 0.532164 27.4711 0.813748 28.4217L26.2467 43.1054L62 22.4646V16.3782L26.6729 36.7736C26.5433 36.8485 26.3963 36.8879 26.2467 36.8879C26.097 36.8879 25.95 36.8485 25.8204 36.7736L0.493414 22.1546ZM34.5159 17.1532C34.4012 17.218 34.2731 17.2555 34.1416 17.2628C34.01 17.2701 33.8786 17.247 33.7574 17.1953C33.6362 17.1436 33.5286 17.0646 33.4428 16.9646C33.3571 16.8646 33.2956 16.7461 33.263 16.6185L32.5397 13.6916L27.0475 13.2369C26.867 13.2215 26.696 13.149 26.5595 13.0299C26.4229 12.9107 26.3279 12.7512 26.2882 12.5744C26.2484 12.3976 26.266 12.2128 26.3385 12.0467C26.4109 11.8806 26.5344 11.7419 26.691 11.6507L41.1008 3.33239L36.704 0.792969L1.80316 20.943L26.2467 35.0531L61.1475 14.9031L49.7808 8.34147L34.5159 17.1532ZM34.0457 12.6866L34.6451 15.1098L48.0732 7.35722L42.8032 4.31405L29.9047 11.7644L33.2888 12.0434C33.4667 12.0582 33.6355 12.1285 33.7713 12.2444C33.9071 12.3603 34.0031 12.5133 34.0457 12.6866ZM62 24.4331L26.6729 44.8285C26.5433 44.9033 26.3963 44.9427 26.2467 44.9427C26.097 44.9427 25.95 44.9033 25.8204 44.8285L0.433998 30.1732C-0.573502 32.5473 0.441748 35.575 0.777581 36.4507L26.2467 51.1576L62 30.5168V24.4331Z" fill="#F2F6FF" fill-opacity="0.1"/>
</svg>
