<svg width="76" height="76" viewBox="0 0 76 76" fill="none" xmlns="http://www.w3.org/2000/svg">
<path d="M61.0565 0.693415C60.6111 0.248171 60.0071 -0.00195312 59.3774 -0.00195312C58.7476 -0.00195312 58.1436 0.248171 57.6982 0.693415L49.875 8.51666L67.4832 26.1249L75.3065 18.3064C75.5277 18.0858 75.7031 17.8237 75.8229 17.5352C75.9426 17.2466 76.0042 16.9373 76.0042 16.6249C76.0042 16.3125 75.9426 16.0032 75.8229 15.7147C75.7031 15.4261 75.5277 15.164 75.3065 14.9434L61.0565 0.693415ZM64.125 29.4832L46.5167 11.8749L15.6417 42.7499H16.625C17.2549 42.7499 17.859 43.0001 18.3044 43.4455C18.7498 43.8909 19 44.495 19 45.1249V47.4999H21.375C22.0049 47.4999 22.609 47.7501 23.0544 48.1955C23.4998 48.6409 23.75 49.245 23.75 49.8749V52.2499H26.125C26.7549 52.2499 27.359 52.5001 27.8044 52.9455C28.2498 53.3909 28.5 53.995 28.5 54.6249V56.9999H30.875C31.5049 56.9999 32.109 57.2501 32.5544 57.6955C32.9998 58.1409 33.25 58.745 33.25 59.3749V60.3582L64.125 29.4832ZM28.652 64.9562C28.552 64.6904 28.5006 64.4089 28.5 64.1249V61.7499H26.125C25.4951 61.7499 24.891 61.4997 24.4456 61.0543C24.0002 60.6089 23.75 60.0048 23.75 59.3749V56.9999H21.375C20.7451 56.9999 20.141 56.7497 19.6956 56.3043C19.2502 55.8589 19 55.2548 19 54.6249V52.2499H16.625C15.9951 52.2499 15.391 51.9997 14.9456 51.5543C14.5002 51.1089 14.25 50.5048 14.25 49.8749V47.4999H11.875C11.5911 47.4993 11.3095 47.4479 11.0437 47.3479L10.1935 48.1934C9.96716 48.4213 9.7894 48.6928 9.67099 48.9914L0.170994 72.7414C-0.00176629 73.173 -0.0440579 73.6458 0.0493625 74.1012C0.142783 74.5567 0.367807 74.9746 0.696538 75.3034C1.02527 75.6321 1.44325 75.8571 1.89866 75.9505C2.35407 76.044 2.82689 76.0017 3.25849 75.8289L27.0085 66.3289C27.3071 66.2105 27.5786 66.0328 27.8065 65.8064L28.652 64.9562Z" fill="#5189FC" fill-opacity="0.1"/>
</svg>
