<svg width="54" height="63" viewBox="0 0 54 63" fill="none" xmlns="http://www.w3.org/2000/svg">
<path d="M52.6502 13.6629C52.4497 13.5036 52.2101 13.4012 51.9564 13.3665C51.7027 13.3318 51.4444 13.3661 51.2085 13.4658L28.266 23.4004C27.2685 23.8351 26.0193 24.0417 24.7368 24.0417C22.9484 24.0488 21.0983 23.6332 19.8087 23.0679C19.4155 22.9028 19.0412 22.6958 18.6924 22.4504C18.789 22.4029 18.9038 22.3523 19.0368 22.2984L39.9035 13.2639L43.0148 14.5939V10.7061C43.0186 10.4289 42.9602 10.1545 42.8439 9.90293C42.7276 9.65137 42.5563 9.42912 42.3427 9.25256C42.1439 9.09175 41.905 8.98838 41.6517 8.95364C41.3984 8.91889 41.1405 8.95409 40.9058 9.05543L17.9633 18.9901C17.2555 19.2751 16.6475 19.6266 16.1345 20.1372C15.5411 20.7237 15.2039 21.5211 15.1964 22.3554C15.1964 22.3792 15.2035 22.4196 15.2035 22.4196V57.4033L15.1988 57.4508L15.2059 57.4746V57.5126H15.2107C15.2582 58.7357 15.8757 59.5147 16.4647 60.0657C18.3172 61.6997 21.4284 62.6141 24.7392 62.6616C26.3067 62.6616 27.8979 62.4241 29.3704 61.7923L52.32 51.8553C52.9257 51.5941 53.3223 50.9457 53.3223 50.2118V15.1164C53.3261 14.8393 53.2677 14.5649 53.1514 14.3133C53.0351 14.0617 52.8638 13.8395 52.6502 13.6629ZM38.0985 7.01293C38.0582 6.49043 37.842 5.99168 37.4573 5.69243C37.2569 5.53309 37.0172 5.43069 36.7635 5.396C36.5098 5.36132 36.2515 5.39562 36.0157 5.49531L13.0732 15.4252C12.0757 15.8574 10.824 16.0664 9.54391 16.0664C7.75554 16.0712 5.90541 15.6556 4.61579 15.0879C4.22282 14.9243 3.84858 14.7189 3.49954 14.4752C3.59612 14.4277 3.71092 14.377 3.84392 14.3232L24.713 5.28868L27.8243 6.61868V2.73556C27.8278 2.45825 27.7691 2.18368 27.6523 1.93211C27.5356 1.68054 27.3638 1.45839 27.1498 1.28206C26.9496 1.12315 26.7104 1.02101 26.4572 0.986326C26.204 0.951644 25.9461 0.985703 25.7105 1.08493L2.76804 11.0219C2.06029 11.3069 1.45467 11.6561 0.93929 12.1691C0.34677 12.756 0.0103922 13.5534 0.00354004 14.3873C0.00354004 14.4158 0.0106645 14.4538 0.0106645 14.4538V49.5492H0.0154153C0.0629153 50.7723 0.680415 51.5513 1.26942 52.1023C3.12191 53.7363 6.23317 54.6483 9.54629 54.6958C10.446 54.69 11.3428 54.5929 12.2229 54.4061V22.4172C12.1992 20.7547 12.8642 19.1587 14.0327 18.0092C14.8432 17.2252 15.8048 16.6143 16.8589 16.2137L38.0985 7.01293Z" fill="#5189FC" fill-opacity="0.1"/>
</svg>
