<svg width="20" height="20" viewBox="0 0 20 20" fill="none" xmlns="http://www.w3.org/2000/svg">
<rect width="20" height="20" rx="4" fill="#B7A8FF" fill-opacity="0.6"/>
<path d="M4.94691 10.9438V13.1986C4.94691 13.7844 5.21476 14.33 5.64331 14.6108L8.99139 16.8014C9.39316 17.0662 9.87528 17.0662 10.2771 16.8014L13.6251 14.6108C14.0537 14.33 14.3215 13.7844 14.3215 13.1986V10.9438L10.2771 13.5918C9.87528 13.8566 9.39316 13.8566 8.99139 13.5918L4.94691 10.9438ZM8.99139 3.19258L3.34653 6.88365C2.88449 7.18857 2.88449 7.99097 3.34653 8.29589L8.99139 11.987C9.39316 12.2518 9.87528 12.2518 10.2771 11.987L15.6608 8.46439V13.2066C15.6608 13.6479 15.9621 14.009 16.3304 14.009C16.6987 14.009 17 13.6479 17 13.2066V8.06319C17 7.7663 16.8661 7.5015 16.6518 7.35707L10.2771 3.19258C10.0792 3.06614 9.85844 3 9.63422 3C9.41 3 9.18923 3.06614 8.99139 3.19258Z" fill="#0F2669"/>
</svg>
