 <svg width="20" height="20" viewBox="0 0 20 20" fill="none" xmlns="http://www.w3.org/2000/svg">
<rect width="20" height="20" rx="4" fill="#A5C3FF" fill-opacity="0.6"/>
<path d="M15.3883 6.30126L10.1383 4.55126C10.0485 4.52132 9.95139 4.52132 9.86158 4.55126L4.61158 6.30126C4.52447 6.3303 4.4487 6.38602 4.39501 6.46052C4.34132 6.53501 4.31243 6.62451 4.31244 6.71634V11.0913C4.31244 11.2074 4.35853 11.3187 4.44058 11.4007C4.52263 11.4827 4.63391 11.5288 4.74994 11.5288C4.86597 11.5288 4.97725 11.4827 5.0593 11.4007C5.14135 11.3187 5.18744 11.2074 5.18744 11.0913V7.32337L7.02439 7.93533C6.53634 8.72381 6.38114 9.67375 6.59287 10.5766C6.80461 11.4794 7.36596 12.2613 8.15369 12.7506C7.16931 13.1367 6.31838 13.835 5.69603 14.7899C5.66367 14.838 5.64118 14.892 5.62989 14.9489C5.6186 15.0058 5.61873 15.0643 5.63027 15.1211C5.6418 15.1779 5.66452 15.2319 5.69709 15.2799C5.72966 15.3278 5.77145 15.3689 5.82001 15.4005C5.86857 15.4322 5.92295 15.4539 5.97997 15.4644C6.037 15.4749 6.09554 15.4739 6.15219 15.4615C6.20884 15.4492 6.26247 15.4257 6.30996 15.3925C6.35746 15.3592 6.39787 15.3168 6.42885 15.2678C7.25299 14.0035 8.55455 13.2788 9.99994 13.2788C11.4453 13.2788 12.7469 14.0035 13.571 15.2678C13.6352 15.3632 13.7343 15.4295 13.847 15.4524C13.9596 15.4752 14.0767 15.4528 14.173 15.39C14.2693 15.3272 14.337 15.2291 14.3615 15.1168C14.386 15.0045 14.3653 14.887 14.3038 14.7899C13.6815 13.835 12.8273 13.1367 11.8462 12.7506C12.6332 12.2613 13.194 11.4799 13.4057 10.5778C13.6174 9.6756 13.4627 8.72632 12.9755 7.93806L15.3883 7.13415C15.4754 7.10513 15.5512 7.04942 15.6049 6.97492C15.6586 6.90043 15.6875 6.81091 15.6875 6.71908C15.6875 6.62724 15.6586 6.53773 15.6049 6.46323C15.5512 6.38873 15.4754 6.33302 15.3883 6.304V6.30126ZM12.6249 9.77884C12.6251 10.1938 12.5268 10.603 12.3382 10.9726C12.1496 11.3423 11.876 11.662 11.5399 11.9054C11.2038 12.1489 10.8148 12.3092 10.4048 12.3732C9.99473 12.4372 9.57537 12.4031 9.18108 12.2736C8.78678 12.1441 8.42881 11.923 8.13651 11.6284C7.84422 11.3338 7.62594 10.9741 7.49958 10.5788C7.37322 10.1835 7.34238 9.76393 7.4096 9.35441C7.47682 8.94489 7.64018 8.55714 7.88627 8.22298L9.86158 8.87923C9.95139 8.90917 10.0485 8.90917 10.1383 8.87923L12.1136 8.22298C12.446 8.67362 12.6252 9.2189 12.6249 9.77884Z" fill="#0F2669"/>
</svg>