<svg width="20" height="20" viewBox="0 0 20 20" fill="none" xmlns="http://www.w3.org/2000/svg">
<rect width="20" height="20" rx="4" fill="#FFEDAD" fill-opacity="0.6"/>
<path d="M14.8125 5.1875H5.1875C4.95544 5.1875 4.73288 5.27969 4.56878 5.44378C4.40469 5.60788 4.3125 5.83044 4.3125 6.0625V13.9375C4.3125 14.1696 4.40469 14.3921 4.56878 14.5562C4.73288 14.7203 4.95544 14.8125 5.1875 14.8125H5.91977C6.00257 14.8125 6.08367 14.7891 6.15367 14.7448C6.22366 14.7006 6.27966 14.6374 6.31516 14.5626C6.5279 14.1134 6.86379 13.7339 7.28375 13.4681C7.70372 13.2023 8.1905 13.0612 8.6875 13.0612C9.1845 13.0612 9.67128 13.2023 10.0912 13.4681C10.5112 13.7339 10.8471 14.1134 11.0598 14.5626C11.0953 14.6374 11.1513 14.7006 11.2213 14.7448C11.2913 14.7891 11.3724 14.8125 11.4552 14.8125H14.8125C15.0446 14.8125 15.2671 14.7203 15.4312 14.5562C15.5953 14.3921 15.6875 14.1696 15.6875 13.9375V6.0625C15.6875 5.83044 15.5953 5.60788 15.4312 5.44378C15.2671 5.27969 15.0446 5.1875 14.8125 5.1875ZM8.6875 12.1875C8.34138 12.1875 8.00304 12.0849 7.71525 11.8926C7.42747 11.7003 7.20316 11.427 7.07071 11.1072C6.93826 10.7874 6.9036 10.4356 6.97113 10.0961C7.03865 9.75663 7.20532 9.44481 7.45006 9.20006C7.6948 8.95532 8.00663 8.78865 8.34609 8.72113C8.68556 8.6536 9.03743 8.68826 9.3572 8.82071C9.67697 8.95316 9.95028 9.17747 10.1426 9.46525C10.3349 9.75304 10.4375 10.0914 10.4375 10.4375C10.4375 10.9016 10.2531 11.3467 9.92494 11.6749C9.59675 12.0031 9.15163 12.1875 8.6875 12.1875ZM14.8125 13.9375H11.7188C11.528 13.6087 11.285 13.3131 10.9991 13.0625H13.5C13.616 13.0625 13.7273 13.0164 13.8094 12.9344C13.8914 12.8523 13.9375 12.741 13.9375 12.625V7.375C13.9375 7.25897 13.8914 7.14769 13.8094 7.06564C13.7273 6.98359 13.616 6.9375 13.5 6.9375H6.5C6.38397 6.9375 6.27269 6.98359 6.19064 7.06564C6.10859 7.14769 6.0625 7.25897 6.0625 7.375V12.625C6.06245 12.722 6.09466 12.8163 6.15406 12.893C6.21346 12.9698 6.29668 13.0246 6.39062 13.0488C6.09815 13.3022 5.84993 13.6025 5.65617 13.9375H5.1875V6.0625H14.8125V13.9375Z" fill="#0F2669"/>
</svg>
